<svg width="284" height="283" viewBox="0 0 284 283" fill="none" xmlns="http://www.w3.org/2000/svg">
<path d="M133.744 30.0721C132.467 30.0765 131.196 30.0898 129.926 30.124C128.928 30.1517 127.931 30.1826 126.938 30.228C122.066 31.0941 119.817 33.2271 118.595 35.6685C117.249 38.3603 117.302 41.9824 118.802 45.2032C120.304 48.4256 123.058 51.06 126.904 52.0438C130.75 53.0277 136.044 52.5192 143.002 48.0713L148.564 56.7769C139.821 62.365 131.361 63.8392 124.347 62.0445C117.334 60.2497 112.13 55.3437 109.441 49.5731C106.907 44.1364 106.442 37.7579 108.872 32.0934C85.1502 35.9294 63.6709 45.0263 47.1724 57.8299C41.75 63.7375 41.2194 70.6035 43.5962 75.2929C46.2659 80.5583 52.556 84.402 65.1362 80.4223L68.2625 90.2682C52.4653 95.2649 39.4446 89.9432 34.3909 79.9735C33.1583 77.5431 32.4055 74.9127 32.1098 72.2004C29.4489 75.3576 27.0467 78.6442 24.9242 82.0634L24.9939 82.0966C20.2326 92.939 20.1243 100.449 22.0224 105.329C23.9216 110.21 27.9007 113.311 34.0278 115.02C46.2808 118.436 66.1223 114.314 80.0943 103.879C86.0749 99.4126 91.7443 88.5807 92.2379 80.1802C92.4839 75.9794 91.594 72.6608 89.8363 70.5416C88.0786 68.4225 85.264 66.8367 79.4377 66.8969L79.3343 56.5685C87.3418 56.4856 93.8436 59.1962 97.7818 63.9442C101.72 68.6922 102.9 74.8065 102.549 80.7849C101.847 92.7422 95.5875 105.2 86.2778 112.153C69.7643 124.486 47.9534 129.622 31.2641 124.969C23.5324 122.814 16.6885 118.123 13.162 110.858C7.88564 135.978 15.5515 159.311 30.1409 175.458C32.0479 177.57 34.0775 179.565 36.2044 181.417C34.6822 177.057 33.9847 172.518 34.1483 168.1C34.4412 160.182 37.51 152.432 43.6664 147.079C48.715 142.687 55.6894 140.154 64.0308 140.17C64.5868 140.17 65.155 140.18 65.7232 140.203C67.0221 140.259 68.3559 140.371 69.714 140.549L68.3653 150.793C59.7493 149.661 54.1573 151.634 50.4368 154.869C46.7169 158.105 44.6646 162.947 44.4601 168.48C44.0511 179.548 51.1316 192.472 66.3981 196.221L66.3804 196.325C81.4104 199.193 98.1825 196.53 115.021 186.254C115.031 186.247 115.045 186.244 115.055 186.237C118.56 183.778 120.447 181.369 121.377 179.293C122.475 176.844 122.451 174.71 121.67 172.418C120.11 167.836 114.518 163.126 109.39 161.813C101.098 159.691 95.8301 162.607 93.3605 166.08C90.8909 169.551 90.7405 172.962 94.5522 175.924L88.2123 184.077C80.3707 177.979 79.8705 167.226 84.9484 160.086C88.7579 154.731 95.4421 151.062 103.5 150.827C103.836 150.817 104.179 150.808 104.52 150.811C106.9 150.827 109.378 151.155 111.947 151.811C120.517 154.006 128.44 160.255 131.447 169.084C132.23 171.381 132.602 173.887 132.484 176.443C141.72 171.724 151.461 167.533 161.382 164.386C178.05 156.769 185.277 143.416 184.995 132.173C184.71 120.845 177.706 111.312 161.572 109.717L162.592 99.4397C182.858 101.444 194.906 115.938 195.307 131.913C195.54 141.221 192.126 150.906 185.254 159.152C194.137 158.157 202.966 158.325 211.525 160.051C209.783 156.474 208.938 152.601 209.056 148.754C209.43 136.574 219.79 125.211 236.071 125.038C237.156 125.026 238.268 125.068 239.404 125.159L238.575 135.454C224.797 134.349 219.616 141.581 219.385 149.082C219.157 156.5 224.108 164.803 238.3 165.905C253.942 166.043 265.156 157.56 270.651 144.953C278.008 128.075 274.519 102.77 251.392 79.6264C250.954 79.1881 250.519 78.7459 250.079 78.3136C249.834 80.4096 249.292 82.4276 248.508 84.3075C244.501 93.9195 235.114 100.408 225.362 102.22C211.912 104.719 200.882 99.2645 195.791 90.9409C190.7 82.6183 192.037 70.849 201.197 64.6528L206.984 73.2202C202.057 76.5521 201.855 81.0635 204.6 85.5517C207.345 90.041 213.538 93.9289 223.479 92.0817C229.728 90.9199 236.687 85.8192 238.972 80.3361C240.116 77.5945 240.338 74.885 239.198 71.7853C238.272 69.2676 236.331 66.3884 232.72 63.3561L232.616 63.2704C217.518 51.8913 201.476 43.7075 185.219 38.3106C185.229 38.3283 185.244 38.3438 185.254 38.362C188.949 45.1164 189.223 52.7784 186.947 59.556C182.397 73.1119 168.116 83.7923 150.449 83.202C146.609 83.0749 142.954 84.9266 139.844 88.5398C136.734 92.153 134.463 97.446 133.937 103.084C132.884 114.36 137.763 126.788 156.789 132.932L153.607 142.76C130.899 135.429 122.196 117.585 123.638 102.134C124.361 94.4098 127.345 87.2315 132.016 81.8047C136.688 76.378 143.333 72.6277 150.792 72.8747C164.08 73.318 174.186 65.09 177.151 56.2579C178.633 51.8426 178.441 47.449 176.183 43.3211C173.99 39.3127 169.644 35.349 161.864 32.4566C152.405 30.8166 142.983 30.0428 133.744 30.0721ZM189.69 169.327C166.522 171.212 141.4 182.261 120.443 195.063C89.5013 213.966 56.9397 209.84 33.8365 192.698C42.9257 225.223 75.1324 231.825 108.732 223.598C112.094 222.335 115.398 219.984 118.215 216.949C122.116 212.744 124.942 207.293 125.832 202.785L135.971 204.789C134.62 211.633 130.954 218.422 125.798 223.98C120.851 229.311 114.406 233.57 106.953 234.688C103.213 243.018 100.135 251.093 98.8862 256.746C96.924 265.623 106.738 269.03 111.133 260.079C121.647 238.664 136.486 219.602 155.023 203.165C169.429 193.684 181.779 181.994 189.691 169.327H189.69Z" fill="#2C3359"/>
</svg>
