<svg width="285" height="284" viewBox="0 0 285 284" fill="none" xmlns="http://www.w3.org/2000/svg">
<path d="M165.615 17.9497L145.589 123.168L218.137 123.412L119.385 266.05L139.412 150.294L66.8675 150.041L165.615 17.9497ZM165.629 0.200018C165.149 0.200018 164.67 0.21749 164.2 0.252713C161.067 0.505928 158.99 1.55318 156.528 3.20837C155.141 4.13286 153.891 5.24716 152.813 6.51874C152.49 6.90038 152.185 7.29725 151.899 7.70799L52.4412 139.338C48.514 144.72 47.9372 151.825 50.9547 157.762C53.9677 163.7 60.0604 167.463 66.7389 167.512L117.974 167.884L101.866 262.789C100.335 270.945 104.684 279.075 112.339 282.35C114.563 283.306 116.959 283.798 119.381 283.796C124.959 283.796 129.543 281.187 132.982 276.474L232.564 133.835C236.491 128.452 237.064 121.339 234.05 115.41C231.037 109.473 224.945 105.71 218.266 105.661L167.031 105.572L182.966 22.1252C183.304 20.759 183.474 19.3568 183.472 17.9495C183.472 8.34671 175.826 0.518963 166.259 0.208338C166.046 0.199463 165.837 0.199463 165.629 0.199463L165.629 0.200018Z" fill="#2C3359"/>
</svg>
