<svg width="39" height="32" viewBox="0 0 39 32" fill="" xmlns="http://www.w3.org/2000/svg">
<g clip-path="url(#clip0_74_498)">
<path d="M7.65031 9.96269C11.0336 10.6694 15.3498 11.0294 20.5521 11.0294C25.8671 11.0294 30.0866 10.6694 33.4539 9.96269C37.0466 9.26936 38.7689 8.33603 38.7689 7.45603C38.7689 6.82936 37.9956 6.21603 36.5939 5.74936C36.9161 5.92269 37.1578 6.21603 37.1578 6.53603C37.1578 7.42936 35.5306 8.16269 32.2616 8.77603C29.2328 9.32269 25.3677 9.70936 20.6649 9.70936C16.1215 9.70936 12.0793 9.32269 9.16476 8.80269C6.02309 8.16269 4.37976 7.46936 4.37976 6.56269C4.37976 6.18936 4.5892 5.86936 5.21754 5.49603C3.25198 6.12269 2.18865 6.65603 2.18865 7.45603C2.30142 8.36269 4.05754 9.26936 7.65031 9.96269ZM15.2048 7.08269C18.862 6.81603 19.9238 4.87069 24.2077 4.55069C26.3183 4.41736 27.6555 4.76403 27.8005 5.37736C27.9294 5.95069 26.8821 6.33736 25.6094 6.41736C23.8533 6.56403 23.1283 6.04403 22.9833 5.55069C21.6783 5.67069 21.4688 6.12403 21.5333 6.44403C21.6783 7.05736 23.2571 7.67069 25.9638 7.45736C29.0249 7.25736 30.056 6.25736 29.7983 5.25736C29.476 3.95069 27.1238 2.85736 22.9027 3.19069C17.491 3.59069 17.5232 5.67069 13.8354 5.92403C12.3209 6.04403 11.4831 5.75069 11.3381 5.25736C11.2415 4.76403 11.9826 4.52403 12.8526 4.47069C13.6581 4.40403 14.6409 4.52403 15.1081 4.73736C15.4465 4.59069 15.5593 4.44403 15.527 4.27069C15.3659 3.80403 14.2543 3.60403 12.8526 3.68403C10.1137 3.88403 10.1137 4.89736 10.2104 5.35069C10.4843 6.51069 12.5948 7.28403 15.2048 7.08403V7.08269ZM33.5989 12.2027C30.2155 12.856 25.8994 13.2814 20.6971 13.2814C15.3804 13.2814 11.0481 12.828 7.68254 12.2147C4.65365 11.5747 3.04254 10.868 2.47865 10.1347C2.76865 11.7747 3.26809 13.3614 3.91254 14.868C3.1392 15.268 2.44642 15.7614 1.81809 16.428C0.668653 17.5878 0.0832574 19.0607 0.176369 20.5587C0.234076 21.2424 0.468117 21.9079 0.862741 22.5105C1.25736 23.113 1.80342 23.6387 2.46415 24.052C3.86581 24.9587 5.38026 25.2254 7.10254 24.9587C7.76309 24.8654 8.5042 24.5854 9.18087 24.3987C7.76309 24.3987 6.57087 24.0254 5.37865 23.2387C4.73142 22.8667 4.18409 22.3881 3.77099 21.8328C3.3579 21.2776 3.08795 20.6577 2.97809 20.012C2.65587 18.7587 2.97809 17.5987 3.83198 16.5734C4.02531 16.3734 4.23476 16.2 4.46031 16.04C4.94365 17.0134 5.4592 17.9734 6.0392 18.8667C7.3442 20.5067 8.6492 21.932 9.9542 23.4787C10.5181 24.3854 10.8886 25.2787 11.1464 26.1707C12.0194 27.1684 13.292 27.8772 14.7376 28.1707C16.5904 28.704 18.5237 28.944 20.5038 28.8507H20.7132C22.729 28.9236 24.7437 28.6886 26.6566 28.1574C28.0442 27.8215 29.2644 27.125 30.1366 26.1707H30.2494C30.4588 25.2774 30.8133 24.384 31.3288 23.4774C32.6161 21.9174 33.9372 20.5054 35.2261 18.8667C37.0022 16.1458 38.2211 13.2001 38.8334 10.1494C38.1406 10.9494 36.515 11.656 33.5989 12.2027Z" fill="#F2EDE4"/>
</g>
<defs>
<clipPath id="clip0_74_498">
<rect width="38.6667" height="32" fill="white" transform="translate(0.166687)"/>
</clipPath>
</defs>
</svg>
