<svg width="285" height="284" viewBox="0 0 285 284" fill="none" xmlns="http://www.w3.org/2000/svg">
<path d="M109.219 275.125C99.9998 275.125 92.5781 267.703 92.5781 258.484V191.922H26.0156C16.7967 191.922 9.375 184.5 9.375 175.281V108.719C9.375 99.4998 16.7967 92.0781 26.0156 92.0781H92.5781V25.5156C92.5781 16.2967 99.9998 8.875 109.219 8.875H175.781C185 8.875 192.422 16.2967 192.422 25.5156V92.0781H258.984C268.203 92.0781 275.625 99.4998 275.625 108.719V175.281C275.625 184.5 268.203 191.922 258.984 191.922H192.422V258.484C192.422 267.703 185 275.125 175.781 275.125H109.219ZM109.219 200.242H175.781L142.5 166.961L109.219 200.242ZM109.219 158.641H175.781L142.5 125.359L109.219 158.641ZM109.219 117.039H175.781L142.5 83.7578L109.219 117.039Z" fill="#2C3359"/>
</svg>
