<svg width="33" height="32" viewBox="0 0 33 32" fill="none" xmlns="http://www.w3.org/2000/svg">
<g clip-path="url(#clip0_44_20)">
<path d="M28 3.50024H5C4.44687 3.50024 4 3.94712 4 4.50024V27.5002C4 28.0534 4.44687 28.5002 5 28.5002H28C28.5531 28.5002 29 28.0534 29 27.5002V4.50024C29 3.94712 28.5531 3.50024 28 3.50024ZM27 26.5002H21.2469V18.819H24.4969L24.9844 15.0471H21.2469V12.6377C21.2469 11.544 21.55 10.8002 23.1156 10.8002H25.1125V7.42524C24.7656 7.37837 23.5813 7.27524 22.2 7.27524C19.3188 7.27524 17.3469 9.03462 17.3469 12.2627V15.044H14.0906V18.8159H17.35V26.5002H6V5.50024H27V26.5002Z" fill="#F2EDE4"/>
</g>
<defs>
<clipPath id="clip0_44_20">
<rect width="32" height="32" fill="white" transform="translate(0.5 0.000244141)"/>
</clipPath>
</defs>
</svg>
