<svg width="33" height="32" viewBox="0 0 33 32" fill="none" xmlns="http://www.w3.org/2000/svg">
<g clip-path="url(#clip0_44_16)">
<path d="M16.5 9.59097C12.9532 9.59097 10.0907 12.4535 10.0907 16.0003C10.0907 19.5472 12.9532 22.4097 16.5 22.4097C20.0469 22.4097 22.9094 19.5472 22.9094 16.0003C22.9094 12.4535 20.0469 9.59097 16.5 9.59097ZM16.5 20.166C14.2063 20.166 12.3344 18.2941 12.3344 16.0003C12.3344 13.7066 14.2063 11.8347 16.5 11.8347C18.7938 11.8347 20.6657 13.7066 20.6657 16.0003C20.6657 18.2941 18.7938 20.166 16.5 20.166ZM23.1719 7.83472C22.3438 7.83472 21.675 8.50347 21.675 9.33159C21.675 10.1597 22.3438 10.8285 23.1719 10.8285C24 10.8285 24.6688 10.1628 24.6688 9.33159C24.669 9.13495 24.6305 8.94019 24.5553 8.75847C24.4802 8.57675 24.3699 8.41164 24.2309 8.27259C24.0919 8.13355 23.9267 8.0233 23.745 7.94816C23.5633 7.87302 23.3685 7.83447 23.1719 7.83472ZM28.9938 16.0003C28.9938 14.2753 29.0094 12.566 28.9125 10.8441C28.8157 8.84409 28.3594 7.06909 26.8969 5.60659C25.4313 4.14097 23.6594 3.68784 21.6594 3.59097C19.9344 3.49409 18.225 3.50972 16.5031 3.50972C14.7781 3.50972 13.0688 3.49409 11.3469 3.59097C9.3469 3.68784 7.5719 4.14409 6.1094 5.60659C4.64378 7.07222 4.19065 8.84409 4.09378 10.8441C3.9969 12.5691 4.01253 14.2785 4.01253 16.0003C4.01253 17.7222 3.9969 19.4347 4.09378 21.1566C4.19065 23.1566 4.6469 24.9316 6.1094 26.3941C7.57503 27.8597 9.3469 28.3128 11.3469 28.4097C13.0719 28.5066 14.7813 28.491 16.5031 28.491C18.2282 28.491 19.9375 28.5066 21.6594 28.4097C23.6594 28.3128 25.4344 27.8566 26.8969 26.3941C28.3625 24.9285 28.8157 23.1566 28.9125 21.1566C29.0125 19.4347 28.9938 17.7253 28.9938 16.0003ZM26.2438 23.3691C26.0157 23.9378 25.7407 24.3628 25.3 24.8003C24.8594 25.241 24.4375 25.516 23.8688 25.7441C22.225 26.3972 18.3219 26.2503 16.5 26.2503C14.6782 26.2503 10.7719 26.3972 9.12815 25.7472C8.5594 25.5191 8.1344 25.2441 7.6969 24.8035C7.25628 24.3628 6.98128 23.941 6.75315 23.3722C6.10315 21.7253 6.25003 17.8222 6.25003 16.0003C6.25003 14.1785 6.10315 10.2722 6.75315 8.62847C6.98128 8.05972 7.25628 7.63472 7.6969 7.19722C8.13753 6.75972 8.5594 6.48159 9.12815 6.25347C10.7719 5.60347 14.6782 5.75034 16.5 5.75034C18.3219 5.75034 22.2282 5.60347 23.8719 6.25347C24.4407 6.48159 24.8657 6.75659 25.3032 7.19722C25.7438 7.63784 26.0188 8.05972 26.2469 8.62847C26.8969 10.2722 26.75 14.1785 26.75 16.0003C26.75 17.8222 26.8969 21.7253 26.2438 23.3691Z" fill="#F2EDE4"/>
</g>
<defs>
<clipPath id="clip0_44_16">
<rect width="32" height="32" fill="white" transform="translate(0.5 0.000244141)"/>
</clipPath>
</defs>
</svg>
