<svg width="33" height="32" viewBox="0 0 33 32" fill="none" xmlns="http://www.w3.org/2000/svg">
<g clip-path="url(#clip0_44_14)">
<path d="M22.7969 18.7471C22.4562 18.5721 20.7594 17.7409 20.4437 17.6284C20.1281 17.5096 19.8969 17.4534 19.6687 17.8034C19.4375 18.1502 18.7812 18.9221 18.575 19.1565C18.375 19.3877 18.1719 19.4159 17.8312 19.244C15.8062 18.2315 14.4781 17.4377 13.1437 15.1471C12.7906 14.5377 13.4969 14.5815 14.1562 13.2659C14.2687 13.0346 14.2125 12.8377 14.125 12.6627C14.0375 12.4877 13.35 10.794 13.0625 10.1034C12.7844 9.43149 12.4969 9.52524 12.2875 9.51274C12.0875 9.50024 11.8594 9.50024 11.6281 9.50024C11.3969 9.50024 11.025 9.58774 10.7094 9.92837C10.3937 10.2752 9.50311 11.1096 9.50311 12.8034C9.50311 14.4971 10.7375 16.1377 10.9062 16.369C11.0812 16.6002 13.3344 20.0752 16.7937 21.5721C18.9812 22.5159 19.8375 22.5971 20.9312 22.4346C21.5969 22.3346 22.9687 21.6034 23.2531 20.794C23.5375 19.9877 23.5375 19.2971 23.4531 19.1534C23.3687 19.0002 23.1375 18.9127 22.7969 18.7471Z" fill="#F2EDE4"/>
<path d="M29.4125 10.5752C28.7062 8.89712 27.6937 7.39087 26.4031 6.09712C25.1125 4.80649 23.6062 3.79087 21.925 3.08774C20.2062 2.36587 18.3812 2.00024 16.5 2.00024H16.4375C14.5437 2.00962 12.7094 2.38462 10.9844 3.12212C9.31874 3.83462 7.82499 4.84712 6.54687 6.13774C5.26874 7.42837 4.26562 8.92837 3.57187 10.6002C2.85312 12.3315 2.49062 14.1721 2.49999 16.0659C2.50937 18.2346 3.02812 20.3877 3.99999 22.3127V27.0627C3.99999 27.8565 4.64374 28.5002 5.43749 28.5002H10.1906C12.1156 29.4721 14.2687 29.9909 16.4375 30.0002H16.5031C18.375 30.0002 20.1906 29.6377 21.9 28.9284C23.5719 28.2315 25.075 27.2315 26.3625 25.9534C27.6531 24.6752 28.6687 23.1815 29.3781 21.5159C30.1156 19.7909 30.4906 17.9565 30.5 16.0627C30.5094 14.1596 30.1406 12.3127 29.4125 10.5752ZM24.6906 24.2627C22.5 26.4315 19.5937 27.6252 16.5 27.6252H16.4469C14.5625 27.6159 12.6906 27.1471 11.0375 26.2659L10.775 26.1252H6.37499V21.7252L6.23437 21.4627C5.35312 19.8096 4.88437 17.9377 4.87499 16.0534C4.86249 12.9377 6.05312 10.0127 8.23749 7.80962C10.4187 5.60649 13.3344 4.38774 16.45 4.37524H16.5031C18.0656 4.37524 19.5812 4.67837 21.0094 5.27837C22.4031 5.86274 23.6531 6.70337 24.7281 7.77837C25.8 8.85024 26.6437 10.1034 27.2281 11.4971C27.8344 12.9409 28.1375 14.4721 28.1312 16.0534C28.1125 19.1659 26.8906 22.0815 24.6906 24.2627Z" fill="#F2EDE4"/>
</g>
<defs>
<clipPath id="clip0_44_14">
<rect width="32" height="32" fill="white" transform="translate(0.5 0.000244141)"/>
</clipPath>
</defs>
</svg>
