<svg width="33" height="32" viewBox="0 0 33 32" fill="none" xmlns="http://www.w3.org/2000/svg">
<g clip-path="url(#clip0_44_18)">
<path d="M30.5 15.9128C30.5 15.844 30.5 15.7659 30.4969 15.6753C30.4938 15.4222 30.4875 15.1378 30.4813 14.8347C30.4563 13.9628 30.4125 13.094 30.3438 12.2753C30.25 11.1472 30.1125 10.2065 29.925 9.50029C29.7271 8.76326 29.3393 8.09107 28.8002 7.55091C28.2612 7.01074 27.5898 6.62153 26.8531 6.42217C25.9688 6.18467 24.2375 6.03779 21.8 5.94717C20.6406 5.90342 19.4 5.87529 18.1594 5.85967C17.725 5.85342 17.3219 5.85029 16.9594 5.84717H16.0406C15.6781 5.85029 15.275 5.85342 14.8406 5.85967C13.6 5.87529 12.3594 5.90342 11.2 5.94717C8.7625 6.04092 7.02812 6.18779 6.14687 6.42217C5.41 6.62104 4.73834 7.01009 4.1992 7.55033C3.66006 8.09057 3.27238 8.76302 3.075 9.50029C2.88438 10.2065 2.75 11.1472 2.65625 12.2753C2.5875 13.094 2.54375 13.9628 2.51875 14.8347C2.50937 15.1378 2.50625 15.4222 2.50312 15.6753C2.50312 15.7659 2.5 15.844 2.5 15.9128V16.0878C2.5 16.1565 2.5 16.2347 2.50312 16.3253C2.50625 16.5784 2.5125 16.8628 2.51875 17.1659C2.54375 18.0378 2.5875 18.9065 2.65625 19.7253C2.75 20.8534 2.8875 21.794 3.075 22.5003C3.475 23.9972 4.65 25.1784 6.14687 25.5784C7.02812 25.8159 8.7625 25.9628 11.2 26.0534C12.3594 26.0972 13.6 26.1253 14.8406 26.1409C15.275 26.1472 15.6781 26.1503 16.0406 26.1534H16.9594C17.3219 26.1503 17.725 26.1472 18.1594 26.1409C19.4 26.1253 20.6406 26.0972 21.8 26.0534C24.2375 25.9597 25.9719 25.8128 26.8531 25.5784C28.35 25.1784 29.525 24.0003 29.925 22.5003C30.1156 21.794 30.25 20.8534 30.3438 19.7253C30.4125 18.9065 30.4563 18.0378 30.4813 17.1659C30.4906 16.8628 30.4938 16.5784 30.4969 16.3253C30.4969 16.2347 30.5 16.1565 30.5 16.0878V15.9128ZM28.25 16.0753C28.25 16.1409 28.25 16.2128 28.2469 16.2972C28.2438 16.5409 28.2375 16.8097 28.2313 17.1003C28.2094 17.9315 28.1656 18.7628 28.1 19.5347C28.0156 20.5409 27.8969 21.3659 27.75 21.919C27.5562 22.6409 26.9875 23.2128 26.2687 23.4034C25.6125 23.5784 23.9594 23.719 21.7125 23.8034C20.575 23.8472 19.35 23.8753 18.1281 23.8909C17.7 23.8972 17.3031 23.9003 16.9469 23.9003H16.0531L14.8719 23.8909C13.65 23.8753 12.4281 23.8472 11.2875 23.8034C9.04063 23.7159 7.38437 23.5784 6.73125 23.4034C6.0125 23.2097 5.44375 22.6409 5.25 21.919C5.10313 21.3659 4.98438 20.5409 4.9 19.5347C4.83438 18.7628 4.79375 17.9315 4.76875 17.1003C4.75938 16.8097 4.75625 16.5378 4.75313 16.2972C4.75313 16.2128 4.75 16.1378 4.75 16.0753V15.9253C4.75 15.8597 4.75 15.7878 4.75313 15.7034C4.75625 15.4597 4.7625 15.1909 4.76875 14.9003C4.79063 14.069 4.83438 13.2378 4.9 12.4659C4.98438 11.4597 5.10313 10.6347 5.25 10.0815C5.44375 9.35967 6.0125 8.78779 6.73125 8.59717C7.3875 8.42217 9.04063 8.28154 11.2875 8.19717C12.425 8.15342 13.65 8.12529 14.8719 8.10967C15.3 8.10342 15.6969 8.10029 16.0531 8.10029H16.9469L18.1281 8.10967C19.35 8.12529 20.5719 8.15342 21.7125 8.19717C23.9594 8.28467 25.6156 8.42217 26.2687 8.59717C26.9875 8.79092 27.5562 9.35967 27.75 10.0815C27.8969 10.6347 28.0156 11.4597 28.1 12.4659C28.1656 13.2378 28.2063 14.069 28.2313 14.9003C28.2406 15.1909 28.2438 15.4628 28.2469 15.7034C28.2469 15.7878 28.25 15.8628 28.25 15.9253V16.0753ZM13.7188 20.1878L20.9688 15.969L13.7188 11.8128V20.1878Z" fill="#F2EDE4"/>
</g>
<defs>
<clipPath id="clip0_44_18">
<rect width="32" height="32" fill="white" transform="translate(0.5 0.000244141)"/>
</clipPath>
</defs>
</svg>
